<svg width="60" height="32" viewBox="0 0 60 32" fill="none" xmlns="http://www.w3.org/2000/svg">
<g clip-path="url(#clip0_1_393)">
<path d="M60 6.5565L60 24.9182C59.9989 26.6571 59.3135 28.3246 58.0942 29.5545C56.8748 30.7845 55.2212 31.4766 53.4963 31.4788L11.1375 31.4788C9.41297 31.4768 7.75966 30.7853 6.54025 29.556C5.32084 28.3267 4.63492 26.66 4.63296 24.9215L4.63296 6.5565C4.63513 4.81815 5.32115 3.15163 6.54054 1.92251C7.75992 0.693384 9.41311 0.00201586 11.1375 4.93067e-05L53.4963 4.74552e-05C55.2205 0.0022332 56.8735 0.693699 58.0927 1.9228C59.3119 3.1519 59.9978 4.81829 60 6.5565ZM6.29802 24.9182C6.29953 26.2115 6.80992 27.4515 7.71719 28.366C8.62446 29.2804 9.85452 29.7948 11.1375 29.7961L53.4963 29.7961C54.7784 29.7934 56.0072 29.2786 56.9134 28.3642C57.8196 27.4499 58.3293 26.2107 58.3308 24.9182L58.3308 6.5565C58.3282 5.2647 57.8181 4.02655 56.912 3.11311C56.0059 2.19967 54.7777 1.68535 53.4963 1.68273L11.1375 1.68274C9.85522 1.68405 8.62579 2.19779 7.71863 3.11137C6.81148 4.02495 6.30062 5.26384 6.29802 6.5565L6.29802 24.9182Z" fill="white"/>
<path d="M2.66247e-06 17.515L2.50677e-06 13.953C2.47167e-06 13.1501 0.316405 12.38 0.879606 11.8122C1.44281 11.2445 2.20667 10.9255 3.00316 10.9255L4.41665 10.9255C4.79153 10.9255 5.15105 11.0756 5.41614 11.3429C5.68122 11.6101 5.83014 11.9725 5.83014 12.3505L5.83014 19.1217C5.83014 19.4996 5.68122 19.862 5.41614 20.1293C5.15106 20.3965 4.79153 20.5466 4.41665 20.5466L3.00316 20.5466C2.60843 20.5466 2.21758 20.4682 1.85295 20.3158C1.48833 20.1634 1.15708 19.94 0.878157 19.6584C0.599234 19.3769 0.378109 19.0426 0.227427 18.6748C0.0767457 18.307 -0.000535826 17.9129 2.66247e-06 17.515Z" fill="white"/>
<path d="M50.4128 28.1646L50.4128 3.45129L53.5332 3.45129C54.3155 3.45129 55.0659 3.76459 55.6191 4.32229C56.1723 4.87999 56.4831 5.6364 56.4831 6.4251L56.4831 25.1899C56.4831 25.9786 56.1723 26.735 55.6191 27.2927C55.0659 27.8504 54.3155 28.1637 53.5332 28.1637L50.4128 28.1637L50.4128 28.1646Z" fill="white"/>
<path d="M42.0646 3.45046L42.0646 28.1646L48.1365 28.1646L48.1365 3.45046L42.0646 3.45046Z" fill="white"/>
<path d="M33.7165 3.45046L33.7165 28.1646L39.7883 28.1646L39.7883 3.45046L33.7165 3.45046Z" fill="white"/>
<path d="M25.1306 3.31081L25.1306 28.0249L31.2025 28.0249L31.2025 3.31081L25.1306 3.31081Z" fill="white"/>
</g>
<defs>
<clipPath id="clip0_1_393">
<rect width="31.4754" height="60" fill="white" transform="translate(0 31.4753) rotate(-90)"/>
</clipPath>
</defs>
</svg>
