<svg width="196" height="196" viewBox="0 0 196 196" fill="none" xmlns="http://www.w3.org/2000/svg">
<path d="M88.8658 175.855L93.0368 189.374L90.1169 189.031L86.6132 176.859L87.527 176.966L81.3174 187.997L78.4372 187.658L85.5685 175.467L88.8658 175.855Z" fill="white"/>
<path d="M71.3483 186.847L71.954 184.649L74.8655 185.451L74.2598 187.649L71.3483 186.847ZM75.2253 183.393L72.7187 182.702L75.3595 173.119L77.866 173.81L75.2253 183.393Z" fill="white"/>
<path d="M60.7201 170.958L58.4103 169.95C58.78 169.369 59.2853 168.928 59.9263 168.626C60.5551 168.318 61.2913 168.181 62.135 168.215C62.9786 168.248 63.9199 168.491 64.9586 168.944C66.1197 169.451 67.0663 170.082 67.7985 170.838C68.5253 171.606 68.9847 172.454 69.1766 173.381C69.3684 174.308 69.2458 175.273 68.8086 176.275C68.3714 177.278 67.7538 178.026 66.9558 178.522C66.1524 179.03 65.2342 179.284 64.2012 179.284C63.156 179.279 62.0468 179.021 60.8736 178.509C59.6759 177.986 58.7626 177.363 58.1334 176.637C57.5043 175.912 57.1683 175.082 57.1253 174.146C57.0648 173.218 57.3236 172.174 57.9019 171.016L66.5911 174.806C66.7326 174.315 66.7454 173.819 66.6296 173.317C66.5015 172.811 66.2411 172.341 65.8482 171.907C65.4431 171.469 64.8983 171.1 64.214 170.802C63.4562 170.471 62.7709 170.325 62.1579 170.363C61.5273 170.408 61.048 170.606 60.7201 170.958ZM61.7753 176.742C62.6552 177.126 63.4554 177.242 64.176 177.091C64.8912 176.952 65.4509 176.636 65.855 176.143L59.6589 173.44C59.4534 174.078 59.5361 174.689 59.9071 175.273C60.2604 175.863 60.8831 176.353 61.7753 176.742Z" fill="white"/>
<path d="M45.9753 159.588L46.6309 160.081L39.2746 164.805L36.9474 163.143L46.2892 157.6L48.2746 159.018L46.2169 167.404L45.5008 166.893L52.8478 162.285L54.8333 163.703L52.522 174.268L50.1948 172.605L52.3874 164.168L53.0546 164.645L45.9472 169.571L43.5223 167.839L45.9753 159.588Z" fill="white"/>
<path d="M31.6057 145.359L29.7606 146.593L25.0005 139.479L26.8456 138.244L31.6057 145.359ZM35.74 146.467L21.6043 148.609L20.0027 146.216L27.3432 133.917L28.9559 136.327L22.2232 147.233L21.5115 146.169L34.1385 144.073L35.74 146.467Z" fill="white"/>
<path d="M14.302 137.845L13.2 135.491L25.8257 129.582L26.9278 131.937L14.302 137.845Z" fill="white"/>
<path d="M10.5699 128.924L9.71941 126.467L22.8925 121.907L23.743 124.364L10.5699 128.924Z" fill="white"/>
<path d="M19.0498 101.54L6.06322 106.888L6.08857 103.948L17.588 99.4272L17.6006 100.287L6.15891 95.7885L6.18528 92.7286L17.7028 88.4277L17.6754 89.2875L6.25562 84.5689L6.28045 81.689L19.1734 87.2004L19.1453 90.4602L7.8885 94.6834L7.89574 93.8434L19.0779 98.28L19.0498 101.54Z" fill="white"/>
<path d="M22.0457 77.1859C21.7347 78.4001 21.2663 79.4225 20.6406 80.2532C20.0181 81.071 19.2726 81.6439 18.4041 81.972C17.5226 82.2967 16.5393 82.3201 15.4544 82.0422C14.3694 81.7642 13.5185 81.271 12.9017 80.5624C12.272 79.8505 11.8809 78.9864 11.7283 77.9701C11.5791 76.9409 11.66 75.8192 11.971 74.6051C12.282 73.3909 12.7471 72.3814 13.3662 71.5766C13.9886 70.7588 14.747 70.1892 15.6414 69.8677C16.5229 69.543 17.5062 69.5196 18.5911 69.7975C19.6761 70.0755 20.527 70.5687 21.1438 71.2773C21.7476 71.9825 22.1259 72.8433 22.2784 73.8597C22.4343 74.8631 22.3567 75.9718 22.0457 77.1859ZM20.1082 76.6896C20.2803 76.018 20.3179 75.3876 20.2211 74.7985C20.1146 74.1931 19.8751 73.6775 19.5024 73.2517C19.1169 72.8226 18.5947 72.5237 17.936 72.355C17.2773 72.1862 16.6757 72.1973 16.1313 72.3881C15.574 72.5757 15.1048 72.9028 14.7237 73.3695C14.3427 73.8362 14.0644 74.4119 13.8891 75.0964C13.717 75.7681 13.6842 76.4066 13.7906 77.0119C13.8971 77.6173 14.1414 78.141 14.5237 78.583C14.9093 79.0121 15.4379 79.3127 16.1095 79.4847C16.7683 79.6535 17.3698 79.6424 17.9142 79.4515C18.4457 79.2574 18.9036 78.9205 19.288 78.4409C19.6595 77.9579 19.9329 77.3742 20.1082 76.6896Z" fill="white"/>
<path d="M15.616 64.3746L16.6576 61.9924L25.765 65.9748L24.7233 68.357L15.616 64.3746ZM20.1488 59.3498C19.8497 60.0339 19.725 60.6852 19.7747 61.3036C19.8123 61.9166 19.9536 62.4586 20.1988 62.9297C20.4439 63.4007 20.7169 63.7747 21.0178 64.0518L20.0019 63.6294C19.8607 63.5531 19.6682 63.4107 19.4247 63.2024C19.1689 62.9886 18.9134 62.7241 18.6584 62.4089C18.3911 62.0883 18.1662 61.7207 17.9836 61.3062C17.7889 60.8863 17.6819 60.4321 17.6627 59.9435C17.6435 59.4548 17.7515 58.9418 17.9865 58.4043L20.1488 59.3498Z" fill="white"/>
<path d="M17.4617 51.3832L18.852 49.1862L30.6317 56.64L29.2415 58.8371L17.4617 51.3832ZM26.713 44.2436L27.9586 52.0374L26.6386 51.1312L35.3586 49.1699L33.594 51.9585L25.9485 53.6056L24.8201 47.235L26.713 44.2436Z" fill="white"/>
<path d="M34.0298 45.9672L35.6309 44.1793C36.0665 44.3725 36.5447 44.3981 37.0657 44.2561C37.5856 44.0952 38.0946 43.7367 38.5928 43.1805C38.9308 42.803 39.1584 42.4789 39.2757 42.208C39.393 41.9372 39.4226 41.7042 39.3646 41.5091C39.2968 41.3051 39.1784 41.1275 39.0095 40.9763C38.8009 40.7895 38.5842 40.7118 38.3593 40.743C38.1245 40.7654 37.8522 40.8796 37.5425 41.0855C37.2328 41.2914 36.8614 41.5762 36.4282 41.94C35.9851 42.2949 35.5404 42.6216 35.0942 42.92C34.6479 43.2184 34.2119 43.4455 33.7862 43.6011C33.3504 43.7479 32.9284 43.7995 32.52 43.7559C32.1105 43.6934 31.722 43.4977 31.3545 43.1685C30.9969 42.8483 30.7547 42.4793 30.6278 42.0613C30.5098 41.6335 30.4943 41.1811 30.5814 40.7042C30.6773 40.2173 30.8624 39.7209 31.1367 39.2147C31.4198 38.6987 31.7793 38.1973 32.2152 37.7106C32.8734 36.9756 33.5297 36.4626 34.1841 36.1716C34.8286 35.8717 35.4512 35.776 36.0521 35.8846C36.6519 35.9743 37.2001 36.2415 37.6967 36.6863L36.1623 38.3996C35.7236 38.15 35.3181 38.0732 34.9457 38.1692C34.5634 38.2564 34.1498 38.5483 33.7051 39.0449C33.2692 39.5316 33.0146 39.9658 32.9412 40.3476C32.8678 40.7293 32.9602 41.0358 33.2185 41.2671C33.4271 41.4539 33.6577 41.5261 33.9103 41.4839C34.1619 41.4228 34.4558 41.2744 34.7922 41.0387C35.1375 40.7931 35.5544 40.4774 36.0431 40.0917C36.4695 39.7755 36.888 39.488 37.2986 39.2293C37.7182 38.9607 38.1319 38.7585 38.5399 38.6227C38.938 38.478 39.3373 38.4419 39.7378 38.5142C40.1374 38.5677 40.5308 38.768 40.9182 39.1149C41.395 39.5418 41.6727 40.0411 41.7514 40.6128C41.839 41.1745 41.7454 41.7887 41.4705 42.4554C41.1857 43.1131 40.7275 43.7946 40.096 44.4998C39.5356 45.1256 38.9862 45.6091 38.4479 45.9504C37.9086 46.2728 37.4012 46.4896 36.9258 46.6008C36.4404 46.703 36.0029 46.7319 35.6133 46.6872C35.2227 46.6238 34.8914 46.524 34.6196 46.3879C34.3477 46.2518 34.1511 46.1116 34.0298 45.9672Z" fill="white"/>
<path d="M48.1911 28.4927L53.7286 24.7566L54.8249 26.3814L49.2873 30.1174L48.1911 28.4927Z" fill="white"/>
<path d="M65.8552 18.7758L72.1161 16.4469L72.7994 18.2839L66.5386 20.6128L65.8552 18.7758Z" fill="white"/>
<path d="M85.3057 13.4844L91.9387 12.6933L92.1708 14.6396L85.5378 15.4306L85.3057 13.4844Z" fill="white"/>
<path d="M109.03 19.8103L105.27 6.1713L108.178 6.60249L111.312 18.8748L110.402 18.7399L116.942 7.90194L119.811 8.32727L112.314 20.2972L109.03 19.8103Z" fill="white"/>
<path d="M126.865 9.35312L126.193 11.5319L123.307 10.6419L123.979 8.46313L126.865 9.35312ZM122.886 12.6884L125.37 13.4547L122.441 22.9532L119.956 22.187L122.886 12.6884Z" fill="white"/>
<path d="M137.019 25.5571L139.297 26.6341C138.91 27.2033 138.392 27.6292 137.742 27.912C137.104 28.2004 136.364 28.3151 135.522 28.2562C134.68 28.1972 133.746 27.9256 132.722 27.4412C131.577 26.8999 130.649 26.2404 129.94 25.4628C129.237 24.6731 128.804 23.8119 128.64 22.8791C128.476 21.9463 128.628 20.9857 129.095 19.9973C129.562 19.0088 130.202 18.279 131.015 17.8078C131.833 17.3245 132.759 17.0983 133.791 17.1292C134.836 17.1658 135.937 17.4576 137.094 18.0047C138.275 18.5631 139.169 19.2143 139.776 19.9584C140.383 20.7025 140.694 21.5426 140.709 22.4786C140.741 23.4084 140.451 24.4436 139.838 25.5844L131.267 21.5329C131.111 22.0194 131.083 22.5151 131.184 23.0198C131.296 23.5303 131.543 24.0079 131.922 24.4528C132.314 24.9035 132.847 25.2883 133.522 25.6074C134.27 25.9607 134.95 26.1276 135.564 26.1081C136.196 26.0822 136.681 25.8986 137.019 25.5571ZM136.139 19.7434C135.271 19.3332 134.475 19.1927 133.75 19.322C133.031 19.4392 132.462 19.7381 132.043 20.2185L138.155 23.1076C138.38 22.4764 138.315 21.8634 137.962 21.2688C137.627 20.6679 137.019 20.1594 136.139 19.7434Z" fill="white"/>
<path d="M151.41 37.3686L150.77 36.8561L158.265 32.3565L160.541 34.0885L151.036 39.346L149.094 37.8684L151.405 29.5484L152.105 30.0813L144.622 34.4649L142.681 32.9873L145.31 22.4975L147.586 24.2295L145.139 32.5965L144.487 32.0999L151.74 27.3907L154.111 29.1953L151.41 37.3686Z" fill="white"/>
<path d="M165.333 52.0243L167.215 50.8462L171.758 58.1014L169.876 59.2795L165.333 52.0243ZM161.234 50.7917L175.429 49.0778L176.957 51.5188L169.248 63.59L167.709 61.132L174.768 50.4351L175.447 51.52L162.763 53.2327L161.234 50.7917Z" fill="white"/>
<path d="M182.412 60.0587L183.442 62.4458L170.644 67.9701L169.613 65.583L182.412 60.0587Z" fill="white"/>
<path d="M185.867 69.0895L186.643 71.5711L173.338 75.7307L172.562 73.2492L185.867 69.0895Z" fill="white"/>
<path d="M176.568 95.2028L189.71 90.2497L189.596 93.1875L177.965 97.3587L177.979 96.4986L189.279 101.341L189.16 104.399L177.518 108.35L177.571 107.491L188.843 112.553L188.731 115.431L176.011 109.532L176.137 106.274L187.517 102.394L187.484 103.233L176.441 98.4604L176.568 95.2028Z" fill="white"/>
<path d="M172.838 120.458C173.186 119.254 173.685 118.246 174.335 117.435C174.982 116.636 175.745 116.086 176.623 115.785C177.514 115.487 178.497 115.493 179.573 115.804C180.649 116.114 181.485 116.633 182.08 117.36C182.688 118.09 183.053 118.966 183.174 119.986C183.292 121.02 183.178 122.138 182.83 123.343C182.482 124.547 181.987 125.542 181.344 126.328C180.697 127.126 179.922 127.673 179.018 127.967C178.127 128.265 177.144 128.258 176.068 127.948C174.991 127.637 174.156 127.118 173.561 126.391C172.979 125.668 172.627 124.796 172.505 123.776C172.379 122.768 172.49 121.662 172.838 120.458ZM174.76 121.013C174.567 121.679 174.511 122.308 174.59 122.9C174.678 123.508 174.901 124.031 175.261 124.468C175.634 124.908 176.146 125.223 176.8 125.411C177.453 125.6 178.055 125.607 178.605 125.433C179.167 125.262 179.646 124.949 180.041 124.494C180.436 124.039 180.732 123.472 180.928 122.793C181.12 122.127 181.172 121.49 181.084 120.882C180.996 120.274 180.767 119.743 180.399 119.289C180.026 118.849 179.507 118.532 178.841 118.34C178.188 118.151 177.586 118.144 177.036 118.319C176.499 118.497 176.031 118.82 175.632 119.287C175.246 119.759 174.956 120.334 174.76 121.013Z" fill="white"/>
<path d="M178.884 133.46L177.771 135.809L168.788 131.554L169.901 129.204L178.884 133.46ZM174.202 138.345C174.521 137.671 174.666 137.023 174.635 136.404C174.616 135.79 174.491 135.244 174.26 134.766C174.029 134.287 173.767 133.905 173.475 133.619L174.478 134.072C174.617 134.153 174.805 134.301 175.042 134.516C175.291 134.738 175.538 135.01 175.784 135.333C176.041 135.661 176.255 136.035 176.425 136.455C176.607 136.881 176.7 137.338 176.704 137.827C176.709 138.316 176.585 138.826 176.334 139.356L174.202 138.345Z" fill="white"/>
<path d="M176.638 146.387L175.182 148.541L163.633 140.735L165.089 138.581L176.638 146.387ZM167.176 153.244L166.166 145.416L167.458 146.362L158.683 148.058L160.531 145.324L168.223 143.909L169.158 150.311L167.176 153.244Z" fill="white"/>
<path d="M159.913 151.302L158.258 153.04C157.829 152.834 157.352 152.794 156.827 152.92C156.302 153.065 155.782 153.408 155.268 153.949C154.918 154.316 154.681 154.633 154.556 154.9C154.43 155.168 154.394 155.4 154.446 155.596C154.507 155.802 154.62 155.983 154.784 156.14C154.987 156.333 155.202 156.417 155.427 156.392C155.663 156.377 155.938 156.271 156.254 156.075C156.57 155.878 156.95 155.605 157.394 155.254C157.847 154.913 158.302 154.6 158.757 154.315C159.212 154.03 159.655 153.817 160.085 153.674C160.525 153.54 160.948 153.502 161.355 153.558C161.763 153.632 162.145 153.84 162.502 154.18C162.85 154.511 163.081 154.887 163.195 155.309C163.3 155.74 163.302 156.192 163.201 156.666C163.09 157.15 162.89 157.641 162.6 158.138C162.302 158.646 161.927 159.136 161.477 159.609C160.797 160.324 160.125 160.817 159.462 161.088C158.809 161.368 158.184 161.445 157.587 161.318C156.99 161.211 156.45 160.927 155.967 160.467L157.552 158.801C157.983 159.064 158.386 159.153 158.762 159.068C159.146 158.993 159.569 158.713 160.028 158.231C160.478 157.757 160.746 157.331 160.831 156.952C160.916 156.572 160.833 156.263 160.582 156.024C160.379 155.831 160.151 155.752 159.897 155.786C159.643 155.84 159.345 155.979 159.002 156.205C158.649 156.44 158.223 156.743 157.723 157.114C157.287 157.417 156.86 157.691 156.442 157.938C156.014 158.193 155.595 158.383 155.183 158.506C154.78 158.639 154.38 158.663 153.982 158.579C153.584 158.513 153.197 158.301 152.82 157.942C152.357 157.501 152.094 156.994 152.033 156.42C151.962 155.856 152.074 155.245 152.369 154.587C152.674 153.938 153.152 153.271 153.805 152.585C154.384 151.976 154.948 151.51 155.496 151.185C156.045 150.879 156.559 150.677 157.037 150.581C157.526 150.493 157.964 150.478 158.352 150.534C158.74 150.609 159.068 150.719 159.336 150.863C159.604 151.007 159.796 151.154 159.913 151.302Z" fill="white"/>
<path d="M145.234 168.338L139.586 171.905L138.539 170.248L144.187 166.681L145.234 168.338Z" fill="white"/>
<path d="M127.285 177.52L120.957 179.658L120.329 177.801L126.658 175.663L127.285 177.52Z" fill="white"/>
<path d="M107.676 182.223L101.022 182.813L100.849 180.861L107.503 180.271L107.676 182.223Z" fill="white"/>
</svg>
